<?xml version="1.0" standalone="no"?>
<svg xmlns="http://www.w3.org/2000/svg" xmlns:xlink="http://www.w3.org/1999/xlink" id="body_1" width="984" height="172">

<g transform="matrix(2 0 0 2 0 0)">
	<g transform="matrix(1.000422 0 0 0.9999694 72.28047 62.70808)">
	</g>
    <path transform="matrix(1.000422 0 0 0.9999694 72.28047 62.70808)"  d="M7.93 -22.27L7.93 -7.07C 7.93 -6.47 8.146667 -5.97 8.58 -5.57C 9.02 -5.163334 9.606667 -4.833333 10.34 -4.58C 11.08 -4.326667 11.93 -4.143333 12.89 -4.03C 13.85667 -3.923333 14.86 -3.87 15.9 -3.87C 16.99334 -3.87 18.02 -3.93 18.98 -4.05C 19.94667 -4.176667 20.78667 -4.366667 21.5 -4.62C 22.22 -4.873333 22.78667 -5.203334 23.2 -5.61C 23.62 -6.01 23.83 -6.496667 23.83 -7.07L23.83 -7.07L23.83 -22.27L29.02 -21.88L29.02 -5.82C 29.02 -5.12 28.85 -4.476667 28.51 -3.89C 28.16333 -3.303333 27.68333 -2.776667 27.07 -2.31C 26.45667 -1.85 25.73333 -1.45 24.9 -1.11C 24.06667 -0.7766667 23.16667 -0.4966667 22.2 -0.27C 21.22667 -0.05 20.20333 0.1133333 19.13 0.22C 18.05667 0.3333333 16.98 0.39 15.9 0.39C 14.80667 0.39 13.72667 0.3333333 12.66 0.22C 11.58667 0.1133333 10.56667 -0.05 9.6 -0.27C 8.626667 -0.4966667 7.723334 -0.7766667 6.89 -1.11C 6.056666 -1.45 5.336667 -1.85 4.73 -2.31C 4.116667 -2.776667 3.636667 -3.3 3.29 -3.88C 2.943333 -4.46 2.77 -5.106667 2.77 -5.82L2.77 -5.82L2.77 -21.88L7.93 -22.27zM49.65 -29.96L53.95 -27.93L41.56 -1.33L37.23 -3.32L49.65 -29.96zM62.58 0L62.58 -16.13C 62.52667 -16.55 62.40667 -16.90334 62.22 -17.19C 62.02667 -17.47667 61.82 -17.71 61.6 -17.89C 61.35333 -18.11 61.08 -18.29333 60.78 -18.44L60.78 -18.44L62.97 -22.27C 63.45 -22.09667 63.93 -21.86667 64.41 -21.58C 64.81667 -21.33333 65.24333 -21.01667 65.69 -20.63C 66.14334 -20.25 66.54 -19.78 66.88 -19.22C 67.52666 -19.63334 68.19333 -20.02667 68.88 -20.4C 69.56 -20.77333 70.27667 -21.09667 71.03 -21.37C 71.77667 -21.64333 72.56334 -21.86 73.39 -22.02C 74.21667 -22.18667 75.10333 -22.27 76.05 -22.27C 78.05667 -22.27 79.78 -22.10333 81.22 -21.77C 82.66 -21.43667 83.84 -20.94 84.76 -20.28C 85.67333 -19.62667 86.34666 -18.81 86.78 -17.83C 87.20667 -16.85667 87.42 -15.71667 87.42 -14.41L87.42 -14.41L87.42 0L82.3 0L82.3 -13.2C 82.3 -13.93333 82.20334 -14.56333 82.01 -15.09C 81.81667 -15.61667 81.55334 -16.06667 81.22 -16.44C 80.88667 -16.80667 80.5 -17.10667 80.06 -17.34C 79.61333 -17.58 79.15334 -17.76 78.68 -17.88C 78.20667 -18.00667 77.72334 -18.09 77.23 -18.13C 76.73001 -18.17667 76.26001 -18.2 75.82 -18.2C 74.98666 -18.2 74.19334 -18.14333 73.44 -18.03C 72.68001 -17.91 71.96334 -17.75 71.29 -17.55C 70.61 -17.35 69.97333 -17.11333 69.38 -16.84C 68.78 -16.56667 68.22 -16.28 67.7 -15.98L67.7 -15.98L67.7 0L62.58 0zM99.18 -22.27L99.18 0L94.22 0L94.22 -22.27L99.18 -22.27zM96.72 -30C 97.68001 -30 98.44 -29.84 99 -29.52C 99.56 -29.2 99.84 -28.69667 99.84 -28.01L99.84 -28.01L99.84 -27.03C 99.84 -26.40333 99.56 -25.95333 99 -25.68C 98.44 -25.40667 97.68001 -25.27 96.72 -25.27C 95.79333 -25.27 95.04668 -25.40667 94.48 -25.68C 93.91333 -25.95333 93.63 -26.40333 93.63 -27.03L93.63 -27.03L93.63 -28.01C 93.63 -28.69667 93.91333 -29.2 94.48 -29.52C 95.04668 -29.84 95.79333 -30 96.72 -30zM118.95 -22.27C 120.0567 -22.27 121.1967 -22.22667 122.37 -22.14C 123.55 -22.05333 124.6867 -21.94333 125.78 -21.81C 126.8733 -21.67 127.9 -21.51 128.86 -21.33C 129.8133 -21.14333 130.6367 -20.94667 131.33 -20.74L131.33 -20.74L131.33 7.42L126.21 7.42L126.21 -1.37C 125.0233 -0.95 123.8033 -0.6166667 122.55 -0.37C 121.29 -0.1233333 120.09 0 118.95 0C 116.9433 0 115.15 -0.14 113.57 -0.42C 111.9967 -0.7 110.6633 -1.133333 109.57 -1.72C 108.4767 -2.306667 107.6433 -3.05 107.07 -3.95C 106.4967 -4.843333 106.21 -5.91 106.21 -7.15L106.21 -7.15L106.21 -15.12C 106.21 -16.35333 106.4967 -17.42 107.07 -18.32C 107.6433 -19.22 108.4767 -19.96333 109.57 -20.55C 110.6633 -21.13667 111.9967 -21.57 113.57 -21.85C 115.15 -22.13 116.9433 -22.27 118.95 -22.27zM120.35 -3.91C 121.0033 -3.91 121.6067 -3.953333 122.16 -4.04C 122.7133 -4.133333 123.2267 -4.246667 123.7 -4.38C 124.1733 -4.52 124.6167 -4.676667 125.03 -4.85C 125.4367 -5.03 125.83 -5.21 126.21 -5.39L126.21 -5.39L126.21 -17.62C 125.8567 -17.74667 125.45 -17.87333 124.99 -18C 124.53 -18.12 124.0433 -18.23 123.53 -18.33C 123.01 -18.43 122.48 -18.50333 121.94 -18.55C 121.4 -18.60333 120.87 -18.63 120.35 -18.63C 119.13 -18.63 117.9733 -18.6 116.88 -18.54C 115.78 -18.47334 114.82 -18.29667 114 -18.01C 113.18 -17.72333 112.53 -17.28333 112.05 -16.69C 111.57 -16.09667 111.33 -15.27333 111.33 -14.22L111.33 -14.22L111.33 -8.48C 111.33 -7.786667 111.44 -7.193334 111.66 -6.7C 111.88 -6.206667 112.19 -5.79 112.59 -5.45C 112.9833 -5.11 113.4567 -4.84 114.01 -4.64C 114.5633 -4.44 115.1733 -4.283334 115.84 -4.17C 116.5067 -4.056667 117.22 -3.986667 117.98 -3.96C 118.74 -3.926667 119.53 -3.91 120.35 -3.91zM142.3 -22.27L142.3 -7.07C 142.3 -6.47 142.52 -5.97 142.96 -5.57C 143.3933 -5.163334 143.98 -4.833333 144.72 -4.58C 145.4533 -4.326667 146.3033 -4.143333 147.27 -4.03C 148.23 -3.923333 149.23 -3.87 150.27 -3.87C 151.3633 -3.87 152.3933 -3.93 153.36 -4.05C 154.32 -4.176667 155.16 -4.366667 155.88 -4.62C 156.5933 -4.873333 157.16 -5.203334 157.58 -5.61C 157.9933 -6.01 158.2 -6.496667 158.2 -7.07L158.2 -7.07L158.2 -22.27L163.4 -21.88L163.4 -5.82C 163.4 -5.12 163.2267 -4.476667 162.88 -3.89C 162.5333 -3.303333 162.0567 -2.776667 161.45 -2.31C 160.8367 -1.85 160.1133 -1.45 159.28 -1.11C 158.4467 -0.7766667 157.5433 -0.4966667 156.57 -0.27C 155.6033 -0.05 154.5833 0.1133333 153.51 0.22C 152.43 0.3333333 151.35 0.39 150.27 0.39C 149.1767 0.39 148.0967 0.3333333 147.03 0.22C 145.9633 0.1133333 144.9433 -0.05 143.97 -0.27C 143.0033 -0.4966667 142.1033 -0.7766667 141.27 -1.11C 140.4367 -1.45 139.7133 -1.85 139.1 -2.31C 138.4867 -2.776667 138.01 -3.3 137.67 -3.88C 137.3233 -4.46 137.15 -5.106667 137.15 -5.82L137.15 -5.82L137.15 -21.88L142.3 -22.27zM182.89 -22.27C 183.5567 -22.27 184.3567 -22.23667 185.29 -22.17C 186.23 -22.10333 187.2033 -21.99 188.21 -21.83C 189.2233 -21.66333 190.2233 -21.43333 191.21 -21.14C 192.2033 -20.84667 193.0934 -20.47334 193.88 -20.02C 194.6667 -19.56667 195.3033 -19.01667 195.79 -18.37C 196.2767 -17.72334 196.52 -16.96333 196.52 -16.09L196.52 -16.09L196.52 -9.49L174.14 -9.49L174.14 -4.49C 175.7133 -4.27 177.23 -4.116667 178.69 -4.03C 180.15 -3.95 181.55 -3.91 182.89 -3.91C 184.9367 -3.91 186.79 -3.986667 188.45 -4.14C 190.11 -4.3 191.5433 -4.476667 192.75 -4.67C 194.1433 -4.89 195.4 -5.143333 196.52 -5.43L196.52 -5.43L196.52 -1.09C 194.0467 -0.7033334 191.6633 -0.4233333 189.37 -0.25C 187.07 -0.08333334 184.91 0 182.89 0C 180.8567 0 179.0133 -0.05666667 177.36 -0.17C 175.7067 -0.2766667 174.29 -0.4033334 173.11 -0.55C 171.73 -0.7033333 170.4867 -0.8833333 169.38 -1.09L169.38 -1.09L169.38 -16.09C 169.38 -16.96333 169.5933 -17.72334 170.02 -18.37C 170.4467 -19.01667 171.02 -19.56667 171.74 -20.02C 172.4533 -20.47334 173.2767 -20.84667 174.21 -21.14C 175.1433 -21.43333 176.11 -21.66333 177.11 -21.83C 178.11 -21.99 179.11 -22.10333 180.11 -22.17C 181.1033 -22.23667 182.03 -22.27 182.89 -22.27zM174.14 -14.84L174.14 -12.62L191.68 -12.62L191.68 -14.88C 191.68 -15.41333 191.55 -15.87333 191.29 -16.26C 191.03 -16.64667 190.68 -16.97 190.24 -17.23C 189.8067 -17.49 189.3 -17.7 188.72 -17.86C 188.14 -18.02667 187.5367 -18.15 186.91 -18.23C 186.29 -18.31667 185.6633 -18.37333 185.03 -18.4C 184.3967 -18.42667 183.8 -18.44 183.24 -18.44C 182.6533 -18.44 182.0267 -18.42667 181.36 -18.4C 180.6867 -18.37333 180.0133 -18.31333 179.34 -18.22C 178.66 -18.13333 178.0067 -18.00667 177.38 -17.84C 176.76 -17.68 176.2067 -17.46667 175.72 -17.2C 175.24 -16.93333 174.8567 -16.60667 174.57 -16.22C 174.2833 -15.83333 174.14 -15.37333 174.14 -14.84zM202.27 -4.8L227.07 -4.8L227.07 0L202.27 0L202.27 -4.8zM250.39 -22.27C 250.39 -20.91 250.3433 -19.5 250.25 -18.04C 250.1633 -16.57333 249.99 -15.06667 249.73 -13.52L249.73 -13.52L245 -13.52C 245.12 -13.96 245.23 -14.44 245.33 -14.96C 245.41 -15.40667 245.4867 -15.92333 245.56 -16.51C 245.6267 -17.10333 245.66 -17.73333 245.66 -18.4C 244.52 -18.37333 243.5733 -18.26667 242.82 -18.08C 242.0733 -17.88667 241.4533 -17.66333 240.96 -17.41C 240.46 -17.15667 240.0567 -16.9 239.75 -16.64C 239.4367 -16.38 239.1567 -16.17333 238.91 -16.02L238.91 -16.02L238.91 0L233.91 0L233.91 -16.13C 233.8567 -16.55 233.7333 -16.90334 233.54 -17.19C 233.3533 -17.47667 233.1567 -17.71 232.95 -17.89C 232.7167 -18.11 232.45 -18.29333 232.15 -18.44L232.15 -18.44L234.22 -22.27C 234.7 -22.09667 235.1733 -21.86667 235.64 -21.58C 236.0467 -21.33333 236.4733 -21.01667 236.92 -20.63C 237.3734 -20.25 237.7767 -19.78 238.13 -19.22C 238.79 -19.67333 239.4 -20.06 239.96 -20.38C 240.52 -20.7 241.0633 -20.97 241.59 -21.19C 242.1167 -21.41 242.6633 -21.58333 243.23 -21.71C 243.7967 -21.83 244.4233 -21.93 245.11 -22.01C 245.79 -22.09 246.5567 -22.14667 247.41 -22.18C 248.2633 -22.21333 249.2567 -22.24333 250.39 -22.27zM268.91 -22.27C 269.57 -22.27 270.37 -22.23667 271.31 -22.17C 272.2433 -22.10333 273.2167 -21.99 274.23 -21.83C 275.2367 -21.66333 276.2367 -21.43333 277.23 -21.14C 278.2167 -20.84667 279.1033 -20.47334 279.89 -20.02C 280.6767 -19.56667 281.3167 -19.01667 281.81 -18.37C 282.2967 -17.72334 282.54 -16.96333 282.54 -16.09L282.54 -16.09L282.54 -9.49L260.16 -9.49L260.16 -4.49C 261.7333 -4.27 263.25 -4.116667 264.71 -4.03C 266.1633 -3.95 267.5634 -3.91 268.91 -3.91C 270.95 -3.91 272.8 -3.986667 274.46 -4.14C 276.12 -4.3 277.5567 -4.476667 278.77 -4.67C 280.1633 -4.89 281.42 -5.143333 282.54 -5.43L282.54 -5.43L282.54 -1.09C 280.0667 -0.7033334 277.68 -0.4233333 275.38 -0.25C 273.08 -0.08333334 270.9233 0 268.91 0C 266.8766 0 265.0333 -0.05666667 263.38 -0.17C 261.7267 -0.2766667 260.3067 -0.4033334 259.12 -0.55C 257.74 -0.7033333 256.4967 -0.8833333 255.39 -1.09L255.39 -1.09L255.39 -16.09C 255.39 -16.96333 255.6067 -17.72334 256.04 -18.37C 256.4667 -19.01667 257.0367 -19.56667 257.75 -20.02C 258.47 -20.47334 259.2933 -20.84667 260.22 -21.14C 261.1533 -21.43333 262.1234 -21.66333 263.13 -21.83C 264.13 -21.99 265.1267 -22.10333 266.12 -22.17C 267.12 -22.23667 268.05 -22.27 268.91 -22.27zM260.16 -14.84L260.16 -12.62L277.7 -12.62L277.7 -14.88C 277.7 -15.41333 277.5667 -15.87333 277.3 -16.26C 277.04 -16.64667 276.6934 -16.97 276.26 -17.23C 275.8267 -17.49 275.32 -17.7 274.74 -17.86C 274.16 -18.02667 273.5567 -18.15 272.93 -18.23C 272.3033 -18.31667 271.6733 -18.37333 271.04 -18.4C 270.4134 -18.42667 269.82 -18.44 269.26 -18.44C 268.6733 -18.44 268.0433 -18.42667 267.37 -18.4C 266.7033 -18.37333 266.03 -18.31333 265.35 -18.22C 264.6767 -18.13333 264.0267 -18.00667 263.4 -17.84C 262.7733 -17.68 262.22 -17.46667 261.74 -17.2C 261.26 -16.93333 260.8767 -16.60667 260.59 -16.22C 260.3033 -15.83333 260.16 -15.37333 260.16 -14.84zM301.37 -22.62C 302.45 -22.62 303.5367 -22.56667 304.63 -22.46C 305.7233 -22.35333 306.77 -22.18333 307.77 -21.95C 308.7767 -21.71667 309.7167 -21.42333 310.59 -21.07C 311.4567 -20.72333 312.2133 -20.3 312.86 -19.8C 313.5067 -19.30667 314.0133 -18.74 314.38 -18.1C 314.74 -17.45333 314.92 -16.73333 314.92 -15.94L314.92 -15.94L309.92 -15.2C 309.92 -15.76 309.68 -16.26333 309.2 -16.71C 308.72 -17.15667 308.0834 -17.53333 307.29 -17.84C 306.49 -18.14667 305.5767 -18.38 304.55 -18.54C 303.5233 -18.70667 302.4633 -18.79 301.37 -18.79C 300.3233 -18.79 299.2933 -18.71333 298.28 -18.56C 297.2667 -18.41333 296.36 -18.19 295.56 -17.89C 294.76 -17.59 294.1067 -17.21667 293.6 -16.77C 293.1 -16.31667 292.85 -15.79333 292.85 -15.2L292.85 -15.2L292.85 -7.07C 292.85 -6.47 293.1 -5.953334 293.6 -5.52C 294.1067 -5.08 294.76 -4.713334 295.56 -4.42C 296.36 -4.126667 297.2667 -3.91 298.28 -3.77C 299.2933 -3.623333 300.3233 -3.55 301.37 -3.55C 302.4633 -3.55 303.5233 -3.63 304.55 -3.79C 305.5767 -3.943333 306.49 -4.166667 307.29 -4.46C 308.0834 -4.753334 308.72 -5.12 309.2 -5.56C 309.68 -5.993334 309.92 -6.496667 309.92 -7.07L309.92 -7.07L314.92 -5.82C 314.92 -5.12 314.74 -4.476667 314.38 -3.89C 314.0133 -3.303333 313.5067 -2.776667 312.86 -2.31C 312.2133 -1.85 311.4567 -1.45 310.59 -1.11C 309.7167 -0.7766667 308.7767 -0.4966667 307.77 -0.27C 306.77 -0.05 305.7233 0.1133333 304.63 0.22C 303.5367 0.3333333 302.45 0.39 301.37 0.39C 300.29 0.39 299.2067 0.3333333 298.12 0.22C 297.0267 0.1133333 295.98 -0.05 294.98 -0.27C 293.98 -0.4966667 293.0467 -0.7766667 292.18 -1.11C 291.3134 -1.45 290.5567 -1.85 289.91 -2.31C 289.27 -2.776667 288.7667 -3.3 288.4 -3.88C 288.0333 -4.46 287.85 -5.106667 287.85 -5.82L287.85 -5.82L287.85 -15.94C 287.85 -16.73333 288.0333 -17.45333 288.4 -18.1C 288.7667 -18.74 289.27 -19.30667 289.91 -19.8C 290.5567 -20.3 291.3134 -20.72333 292.18 -21.07C 293.0467 -21.42333 293.98 -21.71667 294.98 -21.95C 295.98 -22.18333 297.0267 -22.35333 298.12 -22.46C 299.2067 -22.56667 300.29 -22.62 301.37 -22.62zM331.99 -22.27C 333.5433 -22.27 335.0533 -22.17333 336.52 -21.98C 337.9933 -21.79333 339.3167 -21.47667 340.49 -21.03C 341.6633 -20.57667 342.6267 -19.96667 343.38 -19.2C 344.1334 -18.43333 344.5833 -17.47667 344.73 -16.33L344.73 -16.33L340.2 -15.08C 340.2 -15.75333 339.9667 -16.31667 339.5 -16.77C 339.04 -17.21667 338.43 -17.56667 337.67 -17.82C 336.9033 -18.07333 336.0267 -18.25333 335.04 -18.36C 334.0467 -18.46667 333.03 -18.52 331.99 -18.52C 330.99 -18.52 329.9967 -18.47 329.01 -18.37C 328.03 -18.27 327.1534 -18.09333 326.38 -17.84C 325.6 -17.58667 324.9733 -17.24 324.5 -16.8C 324.0267 -16.35333 323.79 -15.78 323.79 -15.08L323.79 -15.08L323.79 -12.7L344.73 -12.7L344.73 -5.94C 344.73 -5.173333 344.56 -4.493333 344.22 -3.9C 343.88 -3.306667 343.41 -2.79 342.81 -2.35C 342.21 -1.916667 341.5034 -1.546667 340.69 -1.24C 339.8767 -0.9333333 339 -0.69 338.06 -0.51C 337.1133 -0.3233333 336.1234 -0.1933333 335.09 -0.12C 334.0567 -0.04 333.0233 0 331.99 0C 330.4167 0 328.8933 -0.09333333 327.42 -0.28C 325.9467 -0.4733333 324.6267 -0.7933334 323.46 -1.24C 322.2867 -1.686667 321.3267 -2.293333 320.58 -3.06C 319.8267 -3.82 319.3867 -4.78 319.26 -5.94L319.26 -5.94L323.79 -7.19C 323.79 -6.47 324.0267 -5.89 324.5 -5.45C 324.9733 -5.01 325.6 -4.663333 326.38 -4.41C 327.1534 -4.163333 328.03 -4 329.01 -3.92C 329.9967 -3.833333 330.99 -3.79 331.99 -3.79C 333.03 -3.79 334.0467 -3.84 335.04 -3.94C 336.0267 -4.033333 336.9033 -4.206667 337.67 -4.46C 338.43 -4.713334 339.04 -5.06 339.5 -5.5C 339.9667 -5.933334 340.2 -6.496667 340.2 -7.19L340.2 -7.19L340.2 -9.57L319.26 -9.57L319.26 -16.33C 319.26 -17.09667 319.43 -17.77667 319.77 -18.37C 320.1033 -18.96333 320.5667 -19.47667 321.16 -19.91C 321.7533 -20.35 322.4533 -20.72333 323.26 -21.03C 324.0667 -21.33 324.9434 -21.57333 325.89 -21.76C 326.83 -21.94 327.82 -22.07 328.86 -22.15C 329.8933 -22.23 330.9367 -22.27 331.99 -22.27z" stroke="none" fill="#DE530F" fill-rule="nonzero" />
</g>
</svg>